<?xml version="1.0" encoding="utf-8"?>
<!-- Generator: Adobe Illustrator 25.4.1, SVG Export Plug-In . SVG Version: 6.00 Build 0)  -->
<svg version="1.1" id="Capa_1" xmlns="http://www.w3.org/2000/svg" xmlns:xlink="http://www.w3.org/1999/xlink" x="0px" y="0px"
	 viewBox="0 0 512 512" style="enable-background:new 0 0 512 512;" xml:space="preserve">
<style type="text/css">
	.st0{fill:#FFFFFF;}
</style>
<g transform="translate(0.000000,512.000000) scale(0.100000,-0.100000)">
	<path class="st0" d="M2321,5079c-655-50-1250-300-1667-701c-264-254-427-525-509-850c-30-118-32-190-5-262l21-54l-22-64
		c-17-50-20-80-17-143c7-131,68-238,181-313l37-25v-133v-134l-57-27c-86-41-183-138-226-226c-94-190-68-420,62-569l40-45l-20-62
		c-36-118-19-245,47-341l34-50V870c0-256,12-326,78-460c37-75,62-111,122-171C544,114,675,50,847,30c120-14,3306-14,3426,0
		c172,20,303,84,427,209c60,60,85,96,122,171c65,131,78,206,78,438v189l26,24c72,66,124,187,124,289c0,61-22,149-47,187
		c-14,21-14,25,11,58c116,152,136,376,50,551c-44,89-141,186-227,227l-57,27v122v123l54,28c70,37,150,121,184,194
		c23,51,27,71,27,158c0,94-2,105-33,168c-30,59-32,72-23,99c26,73,0,228-69,416c-176,482-638,924-1205,1155
		C3275,5042,2799,5116,2321,5079z M2781,4880c994-77,1808-643,1999-1391c24-93,25-130,5-169c-33-65,139-60-2225-60s-2192-5-2225,60
		c-20,39-19,76,5,169c128,502,551,944,1137,1187C1880,4844,2332,4914,2781,4880z M4849,3027c1-21-6-54-14-75
		c-49-116-171-154-330-103c-51,16-94,22-162,23c-138,0-205-23-357-126c-85-56-144-76-226-76s-141,20-226,76
		c-152,103-216,125-358,125c-139,1-221-26-351-115c-89-60-158-85-235-86c-92,0-131,14-244,86c-54,35-124,73-155,85
		c-111,41-280,42-387,1c-28-10-93-46-145-80c-116-75-162-92-250-92c-82,0-141,20-225,77c-190,129-331,154-539,98
		c-107-29-149-29-213,4c-72,37-112,102-112,182c0,45,2,50,18,43c9-5,1003-10,2209-12c2093-2,2194-1,2240,16
		C4842,3099,4848,3094,4849,3027z M2148,2641c23-12,76-44,117-71c106-69,171-91,285-97c148-8,240,19,373,109c103,70,157,90,245,89
		c97,0,141-16,260-92c117-76,183-100,294-107c148-8,246,21,391,120c121,82,229,100,362,59c37-12,76-21,86-21c17,0,19-9,19-100v-100
		H2560H540v94v94l43,7c23,4,71,15,106,26c77,23,192,25,252,4c24-9,85-43,137-76c117-76,183-100,294-107c148-8,246,22,390,119
		c32,22,76,47,96,56C1941,2682,2073,2679,2148,2641z M1075,1951c154-154,293-285,309-291s41-8,56-5c16,3,84,64,175,155
		c83,83,154,150,160,150c12,0,365-351,365-363c0-4-381-6-847-5c-953,4-896-1-987,79c-188,166-109,493,131,545c32,7,125,13,208,13
		l149,1L1075,1951z M1575,2170l60-60l-108-108l-107-107l-167,168l-168,167h215h216L1575,2170z M3010,1825c-223-223-405-405-405-405
		s-182,182-405,405l-405,405h810h810L3010,1825z M4667,2219c158-28,265-172,250-336c-15-154-112-258-264-283c-60-10-1583-14-1583-5
		c0,3,143,147,318,320l317,314l449,1C4441,2230,4626,2226,4667,2219z M4840,1414c16-41,11-105-11-151c-48-100-167-137-306-95
		c-192,58-346,32-526-90c-99-67-141-82-237-82c-97,0-138,15-240,84c-145,99-280,134-428,113c-96-14-159-41-279-120
		c-78-52-103-63-163-73c-113-19-177-3-303,78c-120,78-203,110-301,118c-138,12-261-24-397-116c-101-69-143-84-239-84s-138,15-237,82
		c-178,121-336,148-522,91c-177-54-319,18-328,168c-5,79,3,90,58,73c35-11,239-15,1009-17l965-4l100-99c145-145,158-144,310,9l90,91
		h870c854,1,969,4,1050,33C4830,1443,4829,1443,4840,1414z M912,986c37-8,86-33,142-70c164-109,274-139,429-119
		c100,14,162,40,284,120c170,112,301,110,473-7c234-159,456-159,690,0c119,81,201,102,314,80c50-9,85-25,158-72
		c172-112,276-141,431-121c101,14,156,37,274,115c141,92,221,106,364,62c54-16,109-26,157-26l72-1V805c0-92-5-160-15-198
		c-45-175-176-310-350-364c-57-17-139-18-1775-18s-1718,1-1775,18c-174,54-305,189-350,364c-10,38-15,106-15,206v149l32-7
		c62-14,162-6,243,19C787,1002,832,1005,912,986z"/>
	<path class="st0" d="M2445,4686c-67-67-22-172,72-169c44,1,93,48,93,89c0,33-25,81-49,94C2525,4718,2471,4712,2445,4686z"/>
	<path class="st0" d="M2925,4641c-62-26-81-110-34-157c21-21,51-31,161-54c419-87,750-254,1004-505c122-122,180-198,249-331
		c54-104,74-124,124-124c53,1,101,47,101,99c0,35-107,232-174,322c-87,116-270,288-397,376c-254,173-543,293-864,358
		C2962,4652,2955,4653,2925,4641z"/>
	<path class="st0" d="M1527,4194c-43-23-62-98-34-135c63-81,178-48,181,51c1,35-4,47-32,71C1606,4213,1570,4217,1527,4194z"/>
	<path class="st0" d="M2288,4181c-27-24-33-36-33-69c0-100,128-137,178-53c30,51,15,111-34,137C2357,4217,2324,4213,2288,4181z"/>
	<path class="st0" d="M1053,3825c-91-39-59-185,42-185c51,0,95,44,95,95c0,49-15,74-55,91C1094,3843,1093,3843,1053,3825z"/>
	<path class="st0" d="M2053,3825c-91-39-59-185,42-185c51,0,95,44,95,95c0,49-15,74-55,91C2094,3843,2093,3843,2053,3825z"/>
	<path class="st0" d="M2751,3754c-30-21-51-71-44-107c7-34,56-77,89-77c56,0,103,45,104,98c0,44-14,68-50,87
		C2812,3774,2780,3774,2751,3754z"/>
</g>
</svg>
